<?xml version="1.0" encoding="utf-8"?>
<!-- Generator: Adobe Illustrator 25.4.1, SVG Export Plug-In . SVG Version: 6.00 Build 0)  -->
<svg version="1.1" id="katman_1" xmlns="http://www.w3.org/2000/svg" xmlns:xlink="http://www.w3.org/1999/xlink" x="0px" y="0px"
	 viewBox="0 0 152.2 37.1" style="enable-background:new 0 0 152.2 37.1;" xml:space="preserve">
<style type="text/css">
	.st0{fill-rule:evenodd;clip-rule:evenodd;fill:#F28F00;}
	.st1{fill-rule:evenodd;clip-rule:evenodd;fill:#FFFFFF;}
	.st2{fill-rule:evenodd;clip-rule:evenodd;fill:#A8984B;}
</style>
<g>
	<path class="st0" d="M26.1,26.5c3.1-4.6,1.8-10.9-2.8-14c-4.6-3.1-10.9-1.8-14,2.8c-3.1,4.6-1.8,10.9,2.8,14
		C16.8,32.4,23,31.1,26.1,26.5z"/>
	<g>
		<path class="st1" d="M12,18.7c0.2-0.6-0.1-1.3-0.8-1.5C10.6,17,9.9,17.4,9.7,18c-0.2,0.6,0.1,1.3,0.8,1.5
			C11.1,19.7,11.8,19.4,12,18.7z"/>
		<path class="st1" d="M18.8,16.7c0.4-1.5-0.5-3-2-3.4c-1.5-0.4-3,0.5-3.4,2c-0.4,1.5,0.5,3,2,3.4C16.8,19.1,18.4,18.2,18.8,16.7z"
			/>
	</g>
	<g>
		<path class="st2" d="M14.8,35.8c-2-0.7-4.1-1.4-6.1-2c-1.7-0.6-3-2-3.5-3.7c-1.4-4.6-2.7-9.2-4.1-13.8c0,0,0,0,0,0
			c-0.6-2.6,0.7-5.2,3.2-6.2c3.4-1.4,6.9-2.7,10.3-4.1c0.8-0.3,1.8,0.1,2.1,0.9C17,7.7,16.6,8.6,15.8,9c-3.4,1.4-6.9,2.7-10.3,4.1
			c-1,0.4-1.5,1.4-1.2,2.4c1.4,4.6,2.7,9.2,4.1,13.8c0,0,0,0,0,0C8.5,30,9,30.5,9.7,30.7c2,0.7,4.1,1.4,6.1,2c0.9,0.3,1.3,1.2,1,2.1
			C16.5,35.7,15.5,36.2,14.8,35.8L14.8,35.8z"/>
		<path class="st2" d="M30.8,6.2L30.8,6.2c-1.3-0.7-2.7-1.3-4-2c-0.8,0.3-1.6,0.6-2.3,0.9c2.2,0.8,4.5,1.6,6.7,2.4
			c2.5,1,3.8,3.6,3.2,6.2c-1.4,5.4-2.7,10.8-4.1,16.2c-0.4,1.8-1.7,3.2-3.5,3.7c-2,0.7-4.1,1.4-6.1,2c-0.9,0.3-1.8-0.2-2.1-1
			c-0.3-0.9,0.2-1.8,1-2.1c2-0.7,4.1-1.4,6.1-2c0.7-0.2,1.2-0.8,1.3-1.5c1.4-5.4,2.7-10.8,4.1-16.2c0.2-1-0.3-2-1.2-2.4
			c-3.4-1.3-6.9-2.5-10.3-3.8c-0.2-0.1-0.3-0.2-0.5-0.3c-0.1-0.1-0.3-0.2-0.4-0.3c-0.1-0.1-0.2-0.2-0.2-0.4
			c-0.1-0.1-0.1-0.3-0.1-0.4c0-0.1,0-0.3,0-0.4c0-0.1,0-0.2,0.1-0.2c0-0.1,0.1-0.2,0.2-0.3c0.1-0.1,0.1-0.2,0.2-0.3
			C18.9,4.1,19,4,19.1,3.9c0.1-0.1,0.2-0.1,0.3-0.2c0.1-0.1,0.2-0.1,0.3-0.1c2.1-0.8,4.2-1.7,6.4-2.5c0.7-0.2,1.5-0.1,2.2,0.3
			c1.3,0.7,2.7,1.3,4,2c0.8,0.4,1.1,1.4,0.7,2.2C32.5,6.3,31.6,6.6,30.8,6.2z"/>
	</g>
</g>
<path class="st1" d="M49.7,22.8c0,4.3,3.4,6.9,7,6.9c3.6,0,7-2.6,7-6.9v-8.9h-3.3v8.6c0,2.2-1.6,3.9-3.7,3.9c-2.1,0-3.7-1.6-3.7-3.9
	v-8.6h-3.3V22.8L49.7,22.8z M82.1,17.2c-1.5-2.2-3.6-3.7-6.9-3.7c-5.4,0-8.5,4-8.5,8.1c0,4.1,3.1,8.1,8.5,8.1c2.9,0,5.5-1.6,6.9-3.7
	l-2.9-1.7c-0.9,1.4-2.2,2.3-4,2.3c-2.9,0-5-2.2-5-5c0-2.8,2.1-5,5-5c1.9,0,3.1,0.9,4,2.3L82.1,17.2L82.1,17.2z M84.9,29.2h3.3v-8.6
	c0-2.5,1.6-3.9,3.8-3.9c2.2,0,3.6,1.1,3.6,3.9v8.5h3.3V20c0-3.8-2.7-6.5-6-6.5c-2.1,0-3.8,0.9-4.7,2.3h-0.1V9.3h-3.3V29.2L84.9,29.2
	z M103.1,22.8c0,4.3,3.4,6.9,7,6.9c3.6,0,7-2.6,7-6.9v-8.9h-3.3v8.6c0,2.2-1.6,3.9-3.7,3.9c-2.1,0-3.7-1.6-3.7-3.9v-8.6h-3.3V22.8
	L103.1,22.8z M126.2,29.6l7.1-15.7h-3.7l-3.4,8.8h-0.1l-3.4-8.8h-3.7L126.2,29.6L126.2,29.6z M147.2,29.2h3.3V13.9h-3.3v1.9h-0.1
	c-0.9-1.3-2.6-2.3-4.9-2.3c-5,0-8.1,4.3-8.1,8.1c0,4,2.9,8.1,7.9,8.1c2.1,0,4-0.9,5-2.3h0.1V29.2L147.2,29.2z M137.6,21.6
	c0-2.8,2.2-5,4.9-5c2.6,0,4.8,2.2,4.8,5c0,2.8-2.2,5-4.8,5C139.8,26.5,137.6,24.3,137.6,21.6z"/>
</svg>
