<?xml version="1.0" encoding="utf-8"?>
<!-- Generator: Adobe Illustrator 25.4.1, SVG Export Plug-In . SVG Version: 6.00 Build 0)  -->
<svg version="1.1" id="Capa_1" xmlns="http://www.w3.org/2000/svg" xmlns:xlink="http://www.w3.org/1999/xlink" x="0px" y="0px"
	 viewBox="0 0 316 352.9" style="enable-background:new 0 0 316 352.9;" xml:space="preserve">
<style type="text/css">
	.st0{fill-rule:evenodd;clip-rule:evenodd;fill:#F39000;}
	.st1{fill-rule:evenodd;clip-rule:evenodd;fill:#A9994B;}
	.st2{fill-rule:evenodd;clip-rule:evenodd;fill:#3C3C3B;}
</style>
<path class="st0" d="M206.9,90.4c-32.9-21.9-77.3-13-99.2,19.8c-21.9,32.9-13,77.3,19.8,99.2c32.9,21.9,77.3,13,99.2-19.8
	C248.7,156.7,239.8,112.3,206.9,90.4z M126.6,134.8c-1.5,4.4-6.3,6.8-10.7,5.3c-4.4-1.5-6.8-6.3-5.3-10.7c1.5-4.4,6.3-6.8,10.7-5.3
	C125.7,125.6,128.1,130.4,126.6,134.8z M174.7,120.4c-2.7,10.6-13.6,17-24.2,14.3c-10.6-2.7-17-13.6-14.3-24.2
	c2.7-10.6,13.6-17,24.2-14.3C171.1,98.9,177.5,109.8,174.7,120.4z"/>
<g>
	<path class="st1" d="M153.6,234.1c-14.4-4.8-28.7-9.6-43.1-14.4c-4.7-1.6-8.3-5.5-9.5-10.3c0,0,0-0.1,0-0.1
		c-9.6-32.6-19.2-65.1-28.8-97.7c-1.7-7.1,2-14.3,8.7-17c24.3-9.7,48.6-19.4,72.8-29.1c5.9-2.4,8.8-9.1,6.4-15
		c-2.4-5.9-9.1-8.8-15-6.4c-24.3,9.7-48.6,19.4-72.8,29.1c-17.5,7-27.1,25.8-22.5,44c0,0,0,0.1,0,0.1c9.6,32.6,19.2,65.1,28.8,97.7
		c3.1,12.4,12.4,22.4,24.6,26.5c14.4,4.8,28.7,9.6,43.1,14.4l-0.6-0.2c6,2.4,12.8-0.7,15-6.8C163,242.9,159.7,236.2,153.6,234.1z"/>
	<path class="st1" d="M262.2,55.9c-15.8-5.8-31.5-11.5-47.3-17.3c5.5-2.2,11.1-4.4,16.6-6.6c9.4,4.7,18.9,9.5,28.3,14.2
		c5.7,2.8,12.6,0.5,15.4-5.1c2.8-5.7,0.5-12.6-5.1-15.4c-9.4-4.7-18.9-9.4-28.3-14.2c-4.6-2.8-10.2-3.7-15.4-1.9c-15,6-30,12-45,18
		c-0.8,0.2-1.5,0.5-2.2,0.9c-0.7,0.4-1.4,0.8-2,1.4c-0.6,0.5-1.2,1.1-1.8,1.7c-0.6,0.7-1.1,1.4-1.5,2.1c-0.5,0.8-0.8,1.6-1.1,2.4
		c-0.2,0.6-0.4,1.2-0.5,1.8c-0.2,0.9-0.2,1.9-0.1,2.8c0.1,1,0.4,2,0.8,2.9c0.4,1,1,1.9,1.8,2.7c0.8,0.9,1.7,1.6,2.7,2.3
		c1.1,0.7,2.3,1.3,3.6,1.8c24.3,9,48.6,18,72.8,27c6.8,2.7,10.5,10,8.7,17.1c-9.6,38.4-19.2,76.7-28.8,115.1
		c-1.2,4.8-4.8,8.7-9.5,10.3c-14.4,4.8-28.7,9.6-43.1,14.4c-6,2-9.3,8.5-7.3,14.6c2,6,8.5,9.3,14.6,7.3c14.4-4.8,28.7-9.6,43.1-14.4
		c12.2-4.1,21.5-14.1,24.6-26.5c9.6-38.4,19.2-76.7,28.8-115.1C289.2,81.7,279.6,62.9,262.2,55.9z"/>
</g>
<path class="st2" d="M0,331.3c0,13.5,10.5,21.5,21.9,21.5c11.4,0,21.9-8,21.9-21.5v-27.8H33.6v26.9c0,7-5.2,12.1-11.6,12.1
	c-6.5,0-11.6-5.1-11.6-12.1v-26.9H0V331.3L0,331.3z M101.5,313.9c-4.7-6.8-11.3-11.6-21.5-11.6c-16.8,0-26.5,12.6-26.5,25.3
	c0,12.7,9.7,25.3,26.5,25.3c9.1,0,17.3-4.9,21.5-11.6l-9-5.4c-2.8,4.4-6.9,7.2-12.5,7.2c-9,0-15.6-6.9-15.6-15.6
	c0-8.6,6.6-15.6,15.6-15.6c5.9,0,9.7,3,12.5,7.2L101.5,313.9L101.5,313.9z M110.3,351.6h10.3v-26.9c0-7.8,5.2-12.1,11.8-12.1
	c6.9,0,11.4,3.6,11.4,12.3v26.7h10.3v-29c0-11.9-8.5-20.4-18.7-20.4c-6.6,0-11.8,2.9-14.7,7.3h-0.2v-20.4h-10.3V351.6L110.3,351.6z
	 M167.3,331.3c0,13.5,10.5,21.5,21.9,21.5c11.4,0,21.9-8,21.9-21.5v-27.8h-10.3v26.9c0,7-5.2,12.1-11.6,12.1
	c-6.5,0-11.6-5.1-11.6-12.1v-26.9h-10.3V331.3L167.3,331.3z M239.8,352.9l22.2-49.3h-11.5L239.9,331h-0.2L229,303.5h-11.5
	L239.8,352.9L239.8,352.9z M305.7,351.6H316v-48h-10.3v5.9h-0.2c-2.7-4.1-8.1-7.1-15.3-7.1c-15.6,0-25.4,13.5-25.4,25.3
	c0,12.4,9.1,25.3,24.9,25.3c6.6,0,12.5-2.8,15.8-7.1h0.2V351.6L305.7,351.6z M275.7,327.6c0-8.6,6.9-15.6,15.3-15.6
	c8.1,0,15.1,6.9,15.1,15.6c0,8.6-6.9,15.6-15.1,15.6C282.6,343.2,275.7,336.2,275.7,327.6z"/>
</svg>
