<?xml version="1.0" encoding="utf-8"?>
<!-- Generator: Adobe Illustrator 25.4.1, SVG Export Plug-In . SVG Version: 6.00 Build 0)  -->
<svg version="1.1" id="katman_1" xmlns="http://www.w3.org/2000/svg" xmlns:xlink="http://www.w3.org/1999/xlink" x="0px" y="0px"
	 viewBox="0 0 136 35" style="enable-background:new 0 0 136 35;" xml:space="preserve">
<style type="text/css">
	.st0{fill-rule:evenodd;clip-rule:evenodd;fill:#FFFFFF;}
</style>
<path class="st0" d="M21.5,12c-4.3-2.8-10-1.7-12.9,2.6c-2.8,4.3-1.7,10,2.6,12.9c4.3,2.8,10,1.7,12.9-2.6
	C27,20.6,25.8,14.9,21.5,12z M11.1,17.8c-0.2,0.6-0.8,0.9-1.4,0.7c-0.6-0.2-0.9-0.8-0.7-1.4c0.2-0.6,0.8-0.9,1.4-0.7
	C11,16.6,11.3,17.2,11.1,17.8z M17.3,15.9c-0.4,1.4-1.8,2.2-3.2,1.9c-1.4-0.4-2.2-1.8-1.9-3.2c0.4-1.4,1.8-2.2,3.2-1.9
	C16.9,13.1,17.7,14.5,17.3,15.9z"/>
<g>
	<path class="st0" d="M14.6,30.7c-1.9-0.6-3.7-1.2-5.6-1.9c-0.6-0.2-1.1-0.7-1.2-1.3c0,0,0,0,0,0C6.5,23.2,5.3,19,4,14.8
		c-0.2-0.9,0.3-1.9,1.1-2.2c3.2-1.3,6.3-2.5,9.5-3.8c0.8-0.3,1.1-1.2,0.8-1.9c-0.3-0.8-1.2-1.1-1.9-0.8C10.3,7.3,7.2,8.5,4,9.8
		c-2.3,0.9-3.5,3.4-2.9,5.7c0,0,0,0,0,0c1.2,4.2,2.5,8.5,3.7,12.7c0.4,1.6,1.6,2.9,3.2,3.4c1.9,0.6,3.7,1.2,5.6,1.9l-0.1,0
		c0.8,0.3,1.7-0.1,2-0.9C15.8,31.8,15.4,31,14.6,30.7z"/>
	<path class="st0" d="M28.7,7.5c-2.1-0.7-4.1-1.5-6.2-2.2C23.3,5,24,4.7,24.7,4.4c1.2,0.6,2.5,1.2,3.7,1.8c0.7,0.4,1.6,0.1,2-0.7
		c0.4-0.7,0.1-1.6-0.7-2C28.5,3,27.3,2.4,26,1.8c-0.6-0.4-1.3-0.5-2-0.3c-2,0.8-3.9,1.6-5.9,2.3c-0.1,0-0.2,0.1-0.3,0.1
		c-0.1,0-0.2,0.1-0.3,0.2c-0.1,0.1-0.2,0.1-0.2,0.2c-0.1,0.1-0.1,0.2-0.2,0.3c-0.1,0.1-0.1,0.2-0.1,0.3C17,5,17,5.1,17,5.2
		c0,0.1,0,0.2,0,0.4c0,0.1,0,0.3,0.1,0.4c0.1,0.1,0.1,0.2,0.2,0.3c0.1,0.1,0.2,0.2,0.3,0.3c0.1,0.1,0.3,0.2,0.5,0.2
		c3.2,1.2,6.3,2.3,9.5,3.5c0.9,0.4,1.4,1.3,1.1,2.2c-1.2,5-2.5,10-3.7,15c-0.2,0.6-0.6,1.1-1.2,1.3c-1.9,0.6-3.7,1.2-5.6,1.9
		c-0.8,0.3-1.2,1.1-0.9,1.9c0.3,0.8,1.1,1.2,1.9,0.9c1.9-0.6,3.7-1.2,5.6-1.9c1.6-0.5,2.8-1.8,3.2-3.4c1.2-5,2.5-10,3.7-15
		C32.2,10.9,31,8.4,28.7,7.5z"/>
</g>
<path class="st0" d="M41.8,21.3c0,4,3.1,6.3,6.5,6.3c3.4,0,6.5-2.4,6.5-6.3v-8.2h-2.9v7.9c0,2.1-1.5,3.6-3.4,3.6
	c-1.9,0-3.4-1.5-3.4-3.6v-7.9h-3.2V21.3L41.8,21.3z M71.7,16.4c-1.4-2-3.3-3.4-6.3-3.4c-4.9,0-7.8,3.7-7.8,7.4
	c0,3.7,2.9,7.4,7.8,7.4c2.7,0,5.1-1.4,6.3-3.4L69,22.8c-0.8,1.3-2,2.1-3.7,2.1c-2.7,0-4.6-2-4.6-4.6c0-2.5,1.9-4.6,4.6-4.6
	c1.7,0,2.9,0.9,3.7,2.1L71.7,16.4L71.7,16.4z M74.4,27.3h2.9v-7.9c0-2.3,1.5-3.6,3.4-3.6c2,0,3.3,1,3.3,3.6v7.8l3.2,0.3v-8.5
	c0-3.5-2.5-6-5.6-6c-1.9,0-3.5,0.8-4.4,2.2h-0.1V9.1h-2.9V27.3L74.4,27.3z M90.9,21.3c0,4,3.1,6.3,6.5,6.3c3.4,0,6.5-2.4,6.5-6.3
	v-8.2h-2.9v7.9c0,2.1-1.5,3.6-3.4,3.6c-1.9,0-3.4-1.5-3.4-3.6v-7.9h-3.2V21.3L90.9,21.3z M112.3,27.7l6.4-14.2h-3.3l-3.1,7.9h-0.1
	l-3.1-7.9h-3.3L112.3,27.7L112.3,27.7z M131.7,27.6h2.9V13.5h-2.9v1.8h-0.1c-0.8-1.2-2.4-2.1-4.4-2.1c-4.5,0-7.4,3.9-7.4,7.4
	c0,3.6,2.7,7.4,7.3,7.4c1.9,0,3.6-0.8,4.6-2.1h0.1V27.6L131.7,27.6z M122.9,20.4c0-2.5,2-4.6,4.5-4.6c2.4,0,4.4,2,4.4,4.6
	c0,2.5-2,4.6-4.4,4.6C124.9,25,122.9,22.9,122.9,20.4z"/>
</svg>
